<svg xmlns="http://www.w3.org/2000/svg" data-name="Layer 2" viewBox="0 0 100 125" x="0px" y="0px"><title>WEB &amp;amp; SEO 45</title><path d="M73.54,6.46A5,5,0,0,0,70,5H10a5,5,0,0,0-5,5V90a5,5,0,0,0,5,5H90a5,5,0,0,0,5-5V30a5,5,0,0,0-1.46-3.54ZM85,85H15V15H67.93L85,32.07Z"/><path d="M70,47H30.19a5.12,5.12,0,0,0-5.08,4A5,5,0,0,0,30,57H69.81a5.12,5.12,0,0,0,5.08-4A5,5,0,0,0,70,47Z"/><path d="M70,65H30.19a5.12,5.12,0,0,0-5.08,4A5,5,0,0,0,30,75H69.81a5.12,5.12,0,0,0,5.08-4A5,5,0,0,0,70,65Z"/><path d="M25,34a5,5,0,0,0,5,5H70a5,5,0,0,0,0-10H30A5,5,0,0,0,25,34Z"/><text x="0" y="115" fill="#000000" font-size="5px" font-weight="bold" font-family="'Helvetica Neue', Helvetica, Arial-Unicode, Arial, Sans-serif">Created by Mas Dhimas</text><text x="0" y="120" fill="#000000" font-size="5px" font-weight="bold" font-family="'Helvetica Neue', Helvetica, Arial-Unicode, Arial, Sans-serif">from the Noun Project</text></svg>